<svg id="Ebene_1" xmlns="http://www.w3.org/2000/svg" viewBox="0 0 315.17 65.19">
    <defs>
        <style>.cls-1{fill:#f89a39;}.cls-2{fill:#fff;}</style>
    </defs>
    <polygon class="cls-1"
             points="47.78 24.45 36.87 40.27 24.64 22.82 42.89 22.85 49.73 8.32 14.53 8.38 8.56 0 0 12.3 36.88 65.19 65.38 24.42 47.78 24.45"/>
    <g>
        <path class="cls-2" d="m86.33,50.3h1.91l5.44,12.27,5.44-12.27h1.89l-6.29,14.31h-2.1l-6.29-14.31Z"/>
        <path class="cls-2" d="m105.87,50.3h12.19v1.55h-10.37v4.83h7.06v1.55h-7.06v4.83h10.37v1.55h-12.19v-14.31Z"/>
        <path class="cls-2" d="m123.33,50.3h1.93l10.25,11.8v-11.8h1.81v14.31h-1.93l-10.25-11.84v11.84h-1.81v-14.31Z"/>
        <path class="cls-2" d="m147.78,51.85h-5.63v-1.55h13.08v1.55h-5.63v12.76h-1.81v-12.76Z"/>
        <path class="cls-2"
              d="m163.3,64.08c-1.06-.48-1.9-1.14-2.5-2-.6-.86-.91-1.82-.91-2.89v-8.88h1.81v8.88c0,.8.22,1.51.67,2.13.44.62,1.06,1.1,1.85,1.44.79.34,1.69.51,2.71.51s1.92-.17,2.71-.51c.79-.34,1.41-.82,1.85-1.44.44-.62.66-1.33.66-2.13v-8.88h1.81v8.88c0,1.07-.3,2.04-.89,2.89-.6.86-1.43,1.52-2.5,2-1.07.48-2.29.71-3.64.71s-2.56-.24-3.63-.71Z"/>
        <path class="cls-2"
              d="m179.89,50.3h7.86c1.08,0,2.03.19,2.85.56.82.37,1.45.88,1.9,1.52.44.64.67,1.36.67,2.16,0,1.01-.36,1.87-1.08,2.61-.72.73-1.7,1.21-2.96,1.43l4.14,6.03h-2.1l-4.04-5.89h-5.42v5.89h-1.81v-14.31Zm7.86,6.89c1.13,0,2.01-.25,2.65-.74.64-.5.96-1.13.96-1.91s-.32-1.43-.96-1.94c-.64-.5-1.52-.75-2.65-.75h-6.05v5.34h6.05Z"/>
        <path class="cls-2" d="m198.56,50.3h12.19v1.55h-10.37v4.83h7.06v1.55h-7.06v4.83h10.37v1.55h-12.19v-14.31Z"/>
        <path class="cls-2"
              d="m217.13,64.06c-1.05-.49-1.79-1.17-2.22-2.04l1.72-.57c.26.56.77,1,1.54,1.31s1.77.48,3.01.48c1.6,0,2.79-.22,3.59-.66.8-.44,1.2-1.03,1.2-1.76,0-.56-.18-1-.54-1.33-.36-.33-.85-.59-1.48-.77-.62-.18-1.5-.38-2.62-.58-1.32-.23-2.41-.49-3.25-.77-.85-.29-1.52-.68-2.03-1.19s-.76-1.17-.76-1.99c0-.75.25-1.43.74-2.05.49-.62,1.18-1.11,2.08-1.47s1.93-.54,3.11-.54c1.44,0,2.64.26,3.63.77.98.52,1.65,1.21,2.01,2.08l-1.72.53c-.21-.56-.66-1.01-1.34-1.34s-1.54-.51-2.55-.51c-.85,0-1.59.11-2.21.34-.62.22-1.1.52-1.43.89-.33.37-.5.77-.5,1.2,0,.53.18.95.54,1.26s.86.56,1.49.73c.63.18,1.51.36,2.64.55,1.31.23,2.39.5,3.25.8.86.31,1.54.73,2.04,1.26.5.54.75,1.23.75,2.09,0,1.22-.58,2.2-1.74,2.92-1.16.73-2.78,1.09-4.86,1.09-1.66,0-3.01-.24-4.06-.73Z"/>
    </g>
    <g>
        <path class="cls-2" d="m94.43,13.8h-9.38v-5.19h24.92v5.19h-9.42v21.3h-6.12V13.8Z"/>
        <path class="cls-2" d="m118.15,8.61h23.4v5.19h-17.33v5.46h11.79v5.19h-11.79v5.46h17.33v5.19h-23.4V8.61Z"/>
        <path class="cls-2"
              d="m155.88,33.54c-2.5-1.22-4.48-2.85-5.94-4.91-1.46-2.06-2.19-4.31-2.19-6.77s.73-4.72,2.19-6.77c1.46-2.06,3.44-3.69,5.94-4.91,2.5-1.22,5.27-1.83,8.31-1.83,5.48,0,9.82,1.74,13.04,5.23l-4.78,3.16c-1.01-1.1-2.18-1.93-3.51-2.47-1.32-.54-2.91-.81-4.76-.81-1.94,0-3.69.38-5.27,1.13-1.58.75-2.82,1.77-3.73,3.05-.91,1.28-1.36,2.68-1.36,4.21s.45,2.94,1.36,4.21c.91,1.28,2.15,2.3,3.73,3.05,1.58.75,3.33,1.13,5.27,1.13s3.43-.27,4.76-.81c1.32-.54,2.49-1.36,3.51-2.47l4.78,3.16c-3.22,3.49-7.56,5.23-13.04,5.23-3.04,0-5.81-.61-8.31-1.83Z"/>
        <path class="cls-2" d="m185.93,8.61h6.07v21.3h17.33v5.19h-23.4V8.61Z"/>
        <path class="cls-2" d="m217.95,8.61h23.4v5.19h-17.33v5.46h11.79v5.19h-11.79v5.46h17.33v5.19h-23.4V8.61Z"/>
        <path class="cls-2"
              d="m286.36,8.61h12.99c2.95.05,5.63.65,8.04,1.81,2.41,1.15,4.31,2.73,5.69,4.74,1.38,2.01,2.08,4.24,2.08,6.7s-.69,4.69-2.08,6.7c-1.38,2.01-3.28,3.59-5.69,4.74s-5.09,1.76-8.04,1.81h-12.99V8.61Zm12.73,21.3c1.9,0,3.62-.34,5.14-1.02,1.52-.68,2.7-1.62,3.55-2.84.85-1.22,1.27-2.62,1.27-4.2s-.42-2.98-1.27-4.2c-.85-1.22-2.03-2.16-3.55-2.84-1.52-.68-3.23-1.02-5.14-1.02h-6.61v16.11h6.61Z"/>
        <polygon class="cls-2"
                 points="258.32 27.76 258.33 27.76 263.59 15.91 263.59 15.91 263.59 15.91 263.66 16.07 268.85 27.76 268.86 27.76 272.12 35.1 278.55 35.1 266.89 8.61 260.28 8.61 248.63 35.1 255.06 35.1 258.32 27.76"/>
    </g>
</svg>